<?xml version="1.0" encoding="UTF-8" standalone="no"?>
<!-- Generator: Adobe Illustrator 15.0.0, SVG Export Plug-In . SVG Version: 6.00 Build 0)  -->

<svg
   xmlns:dc="http://purl.org/dc/elements/1.1/"
   xmlns:cc="http://creativecommons.org/ns#"
   xmlns:rdf="http://www.w3.org/1999/02/22-rdf-syntax-ns#"
   xmlns:svg="http://www.w3.org/2000/svg"
   xmlns="http://www.w3.org/2000/svg"
   xmlns:sodipodi="http://sodipodi.sourceforge.net/DTD/sodipodi-0.dtd"
   xmlns:inkscape="http://www.inkscape.org/namespaces/inkscape"
   version="1.1"
   id="Layer_1"
   x="0px"
   y="0px"
   width="198.43px"
   height="198.43px"
   viewBox="0 0 198.43 198.43"
   enable-background="new 0 0 198.43 198.43"
   xml:space="preserve"
   sodipodi:docname="JFC-TS.svg"
   inkscape:version="0.92.2 5c3e80d, 2017-08-06"><metadata
     id="metadata63"><rdf:RDF><cc:Work
         rdf:about=""><dc:format>image/svg+xml</dc:format><dc:type
           rdf:resource="http://purl.org/dc/dcmitype/StillImage" /></cc:Work></rdf:RDF></metadata><defs
     id="defs61" /><sodipodi:namedview
     pagecolor="#ffffff"
     bordercolor="#666666"
     borderopacity="1"
     objecttolerance="10"
     gridtolerance="10"
     guidetolerance="10"
     inkscape:pageopacity="0"
     inkscape:pageshadow="2"
     inkscape:window-width="1276"
     inkscape:window-height="985"
     id="namedview59"
     showgrid="false"
     inkscape:zoom="1.1893363"
     inkscape:cx="-50.448303"
     inkscape:cy="99.214996"
     inkscape:window-x="0"
     inkscape:window-y="18"
     inkscape:window-maximized="0"
     inkscape:current-layer="Layer_1" /><g
     id="g18"
     style="fill:#ffffff"><g
       id="g4"
       style="fill:#ffffff"><path
         d="M16.973,106.052l-6.861-6.499L9.929,99.38l0.183-0.188c6.686-6.943,13.317-13.942,20.049-20.84l20.185-20.704    c6.713-6.916,13.524-13.734,20.282-20.606l20.389-20.5l1.053-1.058l1.055,1.058l20.414,20.475l20.326,20.562l20.193,20.695    l10.088,10.356l10.009,10.436l0.306,0.318l-0.306,0.295c-4.294,4.132-8.604,8.248-12.945,12.332    c4.084-4.342,8.2-8.651,12.332-12.945v0.613L163.104,89.67l-10.356-10.088l-20.695-20.193L111.49,39.062L91.016,18.648h2.107    l-20.5,20.389c-6.872,6.757-13.689,13.569-20.606,20.282L31.312,79.504c-6.897,6.731-13.896,13.362-20.84,20.049v-0.361    L16.973,106.052z"
         id="path2"
         style="fill:#ffffff" /></g><g
       id="g8"
       style="fill:#ffffff"><path
         d="M128.277,144.943c-2.793,3.241-5.67,6.399-8.549,9.555c-2.897,3.137-5.799,6.271-8.748,9.356    c-2.924,3.109-5.904,6.164-8.873,9.229c-2.963,3.072-5.992,6.077-8.984,9.119l-1.049,1.065l-1.059-1.065l-9.65-9.725    c-3.174-3.283-6.375-6.539-9.515-9.858c-3.155-3.303-6.274-6.642-9.377-9.997c-3.079-3.379-6.168-6.748-9.152-10.222    c3.474,2.984,6.843,6.073,10.222,9.152c3.355,3.103,6.694,6.222,9.996,9.377c3.32,3.139,6.576,6.341,9.859,9.515l9.725,9.65    h-2.107c3.043-2.992,6.048-6.021,9.119-8.984c3.066-2.968,6.121-5.948,9.23-8.873c3.086-2.948,6.22-5.85,9.357-8.746    C121.878,150.613,125.036,147.736,128.277,144.943z"
         id="path6"
         style="fill:#ffffff" /></g><g
       id="g16"
       style="fill:#ffffff"><path
         stroke="#ffffff"
         stroke-width="0.5"
         stroke-miterlimit="10"
         d="M112.585,57.183l-3.24,0.604    c-3.868,6.682-7.585,15.674-11.152,26.977c-1.355,4.27-3.267,9.182-5.727,14.73c-2.463,5.553-5.2,10.689-8.215,15.41    c-4.068,6.33-9.481,11.543-16.238,15.637c-6.758,4.094-12.924,6.52-18.5,7.271c-2.56,0.352-5.475,0.527-8.739,0.527    c-3.266,0-6.632-0.576-10.099-1.732c-5.424-1.809-9.144-4.771-11.153-8.891c-0.903-1.912-1.354-4.146-1.354-6.707    c0-2.564,0.676-5.576,2.034-9.043c0.953-2.311,2.635-4.471,5.049-6.48c2.409-2.01,4.293-3.039,5.651-3.09    c0.601-0.051,0.903,0.051,0.903,0.301c-0.052,0.201-0.376,0.453-0.979,0.756c-1.61,0.65-3.392,2.084-5.354,4.295    c-1.958,2.209-3.252,4.432-3.879,6.666c-0.628,2.234-0.942,3.959-0.942,5.162c0,3.668,0.979,6.631,2.939,8.893    c1.355,1.508,3.037,2.863,5.05,4.07c2.006,1.205,4.168,2.033,6.48,2.486c3.414,0.652,6.127,0.979,8.136,0.979    c2.011,0,3.795-0.201,5.352-0.602c3.417-0.756,6.718-2.01,9.908-3.768c3.191-1.76,6.017-3.682,8.478-5.766    c2.462-2.086,4.91-4.658,7.349-7.723c2.436-3.064,4.483-5.854,6.141-8.365c1.657-2.514,3.417-5.525,5.275-9.045    c3.014-5.725,6.104-12.307,9.268-19.74c3.969-8.842,7.987-16.477,12.057-22.91c-6.983,1.158-14.091,3.672-21.324,7.537    c-3.669,1.959-6.81,4.447-9.419,7.459c-3.367,3.818-5.049,7.914-5.049,12.283c0,2.363,0.563,4.193,1.695,5.5    c1.129,1.309,2.322,1.961,3.578,1.961c1.255,0,2.637-0.275,4.146-0.83c1.506-0.551,2.864-1.506,4.067-2.863    c1.91-2.209,2.864-4.746,2.864-7.609c0-1.207-0.176-2.01-0.528-2.412c-0.604-0.4-0.653-0.777-0.15-1.131    c0.555-0.301,1.13-0.125,1.733,0.531c0.503,1.102,0.755,2.396,0.755,3.877c0,1.482-0.556,3.18-1.659,5.088    c-1.858,3.166-4.421,5.326-7.687,6.48c-1.506,0.504-2.938,0.752-4.293,0.752c-2.261,0-4.297-0.727-6.105-2.184    c-2.311-1.908-3.467-4.471-3.467-7.688c0-4.07,1.456-7.961,4.372-11.68c2.21-2.863,4.809-5.225,7.798-7.082    c2.989-1.859,6.367-3.516,10.137-4.975c6.078-2.359,12.684-4.018,19.819-4.973c0.601-1.004,1.505-2.186,2.712-3.543    c1.206-1.354,2.208-2.158,3.014-2.41c0.802-0.25,1.456-0.377,1.957-0.377c1.76,0,2.64,0.754,2.64,2.26    c-0.052,1.357-0.604,2.4-1.659,3.127C115.975,55.915,114.495,56.579,112.585,57.183z M114.922,52.21    c-0.103,0-0.215,0.025-0.341,0.076c-0.127,0.051-0.299,0.162-0.526,0.338s-0.438,0.34-0.641,0.488    c-0.203,0.15-0.441,0.379-0.716,0.68c-0.276,0.303-0.502,0.541-0.677,0.715c-0.179,0.178-0.415,0.428-0.718,0.754    c-0.301,0.328-0.501,0.539-0.602,0.641c3.465-0.604,5.173-1.531,5.123-2.789C115.726,52.511,115.422,52.21,114.922,52.21z"
         id="path10"
         style="fill:#ffffff" /><path
         stroke="#ffffff"
         stroke-width="0.5"
         stroke-miterlimit="10"
         d="M101.57,103.745l-2.184,1.746l-0.536-0.605    c0.849-0.91,1.487-1.625,1.905-2.143s1.02-1.258,1.801-2.227c-0.088-0.24-0.153-0.584-0.201-1.021    c-0.066-0.623,0.097-1.176,0.49-1.662c0.389-0.48,0.929-0.76,1.615-0.832l0.749-0.078l0.557-1.008l2.862-5.223    c0.687-1.271,1.458-2.648,2.311-4.127c0.854-1.479,1.828-3.064,2.912-4.758c1.141-1.762,2.174-3.338,3.102-4.729    c0.929-1.391,1.788-2.652,2.586-3.777c0.797-1.125,1.574-2.152,2.327-3.086c0.755-0.932,1.528-1.82,2.327-2.66    c0.85-0.908,1.627-1.639,2.324-2.186c0.703-0.547,1.396-0.857,2.084-0.93c0.621-0.066,1.13,0.086,1.516,0.457    c0.383,0.373,0.615,0.898,0.687,1.586c0.112,1.061-0.438,2.572-1.653,4.529c-1.217,1.959-3.174,4.502-5.877,7.627l-7.614,8.662    l-4.407,4.912l-1.016,1.15l-0.612,1.391c-0.604,1.451-1.145,2.629-1.618,3.531c-0.473,0.902-0.838,1.637-1.095,2.199    c-0.256,0.562-0.445,1.039-0.559,1.434c-0.12,0.391-0.153,0.805-0.107,1.24c0.073,0.689,0.333,1.215,0.782,1.576    c0.447,0.363,0.953,0.516,1.516,0.455c0.624-0.064,1.24-0.365,1.846-0.902c0.607-0.539,1.503-1.469,2.69-2.793l0.857,0.951    c-1.299,1.463-2.299,2.467-2.997,3.014c-0.701,0.549-1.488,0.867-2.363,0.959c-0.876,0.092-1.611-0.02-2.211-0.334    c-0.604-0.316-1.201-0.883-1.793-1.707l-1.641,3.299l-0.729,2.064c-0.383,1.176-0.772,2.273-1.168,3.295    c-0.399,1.02-0.738,1.986-1.023,2.902c-1.119,3.148-1.981,5.621-2.582,7.422c-0.599,1.799-0.997,2.961-1.196,3.488    c-0.344,0.92-0.793,2.057-1.347,3.408c-0.552,1.352-1.144,2.771-1.776,4.26c-0.633,1.486-1.266,2.959-1.904,4.414    c-0.637,1.457-1.209,2.781-1.716,3.971c-1.209,2.904-2.312,5.324-3.306,7.262c-0.996,1.936-1.939,3.504-2.822,4.699    c-0.886,1.195-1.74,2.078-2.565,2.639c-0.823,0.561-1.673,0.887-2.549,0.979c-0.75,0.078-1.402-0.137-1.963-0.646    c-0.558-0.51-0.882-1.201-0.975-2.076c-0.087-0.812-0.034-1.67,0.155-2.574c0.188-0.904,0.502-1.979,0.941-3.225    c0.302-0.727,0.66-1.521,1.074-2.387c0.415-0.863,0.829-1.729,1.242-2.592c0.423-0.803,0.814-1.57,1.179-2.301    c0.366-0.736,0.8-1.57,1.3-2.506c0.502-0.938,1.138-2.109,1.903-3.516c0.769-1.406,1.763-3.215,2.981-5.426l4.364-8.037    l5.696-9.785L101.57,103.745z M93.187,124.896c-0.426,0.738-1.104,1.947-2.034,3.623c-0.928,1.676-2.106,3.852-3.528,6.527    c-0.954,1.74-1.743,3.246-2.368,4.512c-0.623,1.266-1.185,2.381-1.685,3.35c-0.497,0.967-0.953,1.869-1.373,2.701    c-0.416,0.834-0.832,1.682-1.247,2.545c-0.976,2.125-1.6,3.705-1.869,4.744c-0.271,1.037-0.372,1.869-0.307,2.496    c0.079,0.746,0.37,1.098,0.867,1.043c0.562-0.059,1.236-0.541,2.025-1.443c0.792-0.904,1.609-2.127,2.459-3.668    c0.848-1.543,1.807-3.521,2.88-5.939c1.071-2.418,2.347-5.312,3.821-8.686c0.766-1.725,1.463-3.361,2.088-4.91    c0.628-1.551,1.188-2.98,1.681-4.295c0.262-0.535,0.669-1.604,1.226-3.209s1.303-3.688,2.233-6.248l2.2-6.104l-3.074,5.91    L93.187,124.896z M116.301,84.394c0.672-0.83,1.428-1.729,2.273-2.703c0.837-1.035,1.594-1.967,2.265-2.795    c0.67-0.828,1.282-1.604,1.839-2.324c0.555-0.721,1.051-1.404,1.488-2.051s0.904-1.311,1.4-1.996    c1.583-2.373,2.32-4.062,2.216-5.061c-0.047-0.438-0.257-0.637-0.632-0.598c-1.062,0.111-2.814,2.047-5.262,5.809    c-2.445,3.764-5.38,8.887-8.803,15.369l1.539-1.58C115.073,85.911,115.631,85.22,116.301,84.394z"
         id="path12"
         style="fill:#ffffff" /><path
         stroke="#ffffff"
         stroke-width="0.5"
         stroke-miterlimit="10"
         d="M129.937,102.532c-2.882,2.639-5.282,4.691-7.212,6.156    s-3.895,2.305-5.895,2.512c-2.996,0.316-4.602-0.525-4.812-2.523c-0.098-0.938,0.08-1.951,0.535-3.041    c0.453-1.09,1.128-2.184,2.021-3.291c1.286-1.586,2.771-2.941,4.45-4.064c1.682-1.125,3.209-1.758,4.584-1.904    c0.938-0.098,1.727,0.072,2.375,0.51c0.644,0.438,1.012,1.094,1.105,1.967c0.078,0.75-0.118,1.434-0.59,2.051    c-0.473,0.617-1.083,0.965-1.833,1.045c-0.623,0.066-1.155-0.051-1.599-0.354c-0.443-0.297-0.688-0.697-0.742-1.199    c-0.059-0.561,0.174-1.061,0.695-1.494c0.182-0.082,0.262-0.217,0.241-0.404c-0.037-0.375-0.277-0.537-0.714-0.492    c-1,0.102-2.191,1.082-3.573,2.932c-0.827,1.162-1.475,2.35-1.947,3.566c-0.473,1.219-0.663,2.264-0.571,3.141    c0.12,1.123,0.896,1.607,2.333,1.459c1.312-0.139,2.948-0.928,4.913-2.365c1.963-1.438,3.84-3.26,5.629-5.469l0.953,0.941    L129.937,102.532z"
         id="path14"
         style="fill:#ffffff" /></g></g><g
     id="g56"
     style="fill:#ffffff"><path
       d="M114.193,117.588v0.479h-3.326v8.556h-0.479v-8.556h-3.326v-0.479H114.193z"
       id="path20"
       style="fill:#ffffff" /><path
       d="M115.602,121.872h3.326v0.479h-3.326v3.793h5.708v0.479h-6.174v-9.034h5.694v0.479h-5.229V121.872z"
       id="path22"
       style="fill:#ffffff" /><path
       d="M122.013,122.111c0,2.289,1.743,4.151,4.031,4.151c0.998,0,1.97-0.346,2.661-0.932l0.306,0.347   c-0.784,0.651-1.862,1.064-2.967,1.064c-2.568,0-4.511-2.076-4.511-4.631s1.942-4.644,4.511-4.644c1.104,0,2.183,0.412,2.967,1.064   l-0.306,0.359c-0.691-0.586-1.663-0.945-2.661-0.945C123.756,117.946,122.013,119.823,122.013,122.111z"
       id="path24"
       style="fill:#ffffff" /><path
       d="M130.553,117.588v4.284h5.708v-4.284h0.479v9.034h-0.479v-4.271h-5.708v4.271h-0.466v-9.034H130.553z"
       id="path26"
       style="fill:#ffffff" /><path
       d="M144.813,126.742h-0.492l-5.694-8.423v8.303h-0.466v-9.154h0.479l5.695,8.436v-8.315h0.479V126.742z"
       id="path28"
       style="fill:#ffffff" /><path
       d="M154.777,122.111c0,2.555-2.009,4.631-4.511,4.631c-2.501,0-4.511-2.076-4.511-4.631s2.01-4.644,4.511-4.644   C152.769,117.468,154.777,119.557,154.777,122.111z M150.267,126.263c2.235,0,4.045-1.862,4.045-4.151   c0-2.288-1.81-4.165-4.045-4.165s-4.031,1.877-4.031,4.165C146.235,124.4,148.031,126.263,150.267,126.263z"
       id="path30"
       style="fill:#ffffff" /><path
       d="M161.906,126.144v0.479h-6.174v-9.034h0.466v8.556H161.906z"
       id="path32"
       style="fill:#ffffff" /><path
       d="M170.446,122.111c0,2.555-2.009,4.631-4.511,4.631c-2.501,0-4.511-2.076-4.511-4.631s2.01-4.644,4.511-4.644   C168.438,117.468,170.446,119.557,170.446,122.111z M165.936,126.263c2.235,0,4.045-1.862,4.045-4.151   c0-2.288-1.81-4.165-4.045-4.165s-4.031,1.877-4.031,4.165C161.904,124.4,163.7,126.263,165.936,126.263z"
       id="path34"
       style="fill:#ffffff" /><path
       d="M175.672,126.263c1.397,0,2.595-0.892,3.087-2.155v-1.291h-1.902v-0.466h2.382v4.271h-0.399l-0.066-1.663h-0.014   c-0.652,1.064-1.796,1.783-3.087,1.783c-2.567,0-4.497-2.062-4.511-4.631c0-2.555,1.943-4.644,4.511-4.644   c1.157,0,2.275,0.426,3.073,1.157l-0.318,0.347c-0.692-0.639-1.703-1.025-2.755-1.025c-2.288,0-4.031,1.877-4.031,4.165   C171.653,124.413,173.37,126.263,175.672,126.263z"
       id="path36"
       style="fill:#ffffff" /><path
       d="M180.141,117.468l3.366,5.509l3.353-5.509l0.413,0.239l-3.526,5.788v3.127h-0.479v-3.127l-3.525-5.788L180.141,117.468z"
       id="path38"
       style="fill:#ffffff" /><path
       d="M126.903,137.24c0-2.595-6.174-1.823-6.174-4.63c0-1.265,1.477-2.143,3.087-2.143c1.649,0,2.701,0.771,3.087,1.117   l-0.307,0.359c-0.319-0.292-1.277-0.998-2.78-0.998c-1.544,0-2.621,0.839-2.621,1.664c0,2.314,6.187,1.583,6.187,4.63   c0,1.438-1.663,2.502-3.565,2.502c-1.916,0-3.114-0.919-3.566-1.384l0.333-0.333c0.386,0.386,1.49,1.237,3.233,1.237   C125.586,139.263,126.903,138.292,126.903,137.24z"
       id="path40"
       style="fill:#ffffff" /><path
       d="M128.79,134.872h3.326v0.479h-3.326v3.793h5.708v0.479h-6.174v-9.034h5.694v0.479h-5.229V134.872z"
       id="path42"
       style="fill:#ffffff" /><path
       d="M140.869,138.931l-1.371-2.143c-0.599-0.932-1.224-0.972-2.395-0.972h-1.197v3.806h-0.466v-9.034h3.14   c2.01,0,3.034,1.304,3.034,2.621c0,0.745-0.333,1.49-0.984,1.995c-0.32,0.253-0.919,0.453-1.61,0.506v0.014   c0.319,0.159,0.625,0.412,0.878,0.798l1.384,2.156c0.239,0.372,0.399,0.466,0.731,0.466h0.08v0.479h-0.08   C141.601,139.622,141.255,139.529,140.869,138.931z M138.58,135.351c1.797,0,2.555-1.157,2.555-2.142   c0-1.052-0.825-2.143-2.555-2.143h-2.674v4.284H138.58z"
       id="path44"
       style="fill:#ffffff" /><path
       d="M142.304,130.508l3.34,8.396l3.34-8.396l0.452,0.173l-3.619,9.062h-0.359l-3.605-9.062L142.304,130.508z"
       id="path46"
       style="fill:#ffffff" /><path
       d="M150.151,139.622v-9.034h0.466v9.034H150.151z"
       id="path48"
       style="fill:#ffffff" /><path
       d="M152.04,135.111c0,2.289,1.743,4.151,4.031,4.151c0.998,0,1.97-0.346,2.661-0.932l0.306,0.347   c-0.784,0.651-1.862,1.064-2.967,1.064c-2.568,0-4.511-2.076-4.511-4.631s1.942-4.644,4.511-4.644c1.104,0,2.183,0.412,2.967,1.064   l-0.306,0.359c-0.691-0.586-1.663-0.945-2.661-0.945C153.783,130.946,152.04,132.823,152.04,135.111z"
       id="path50"
       style="fill:#ffffff" /><path
       d="M160.58,134.872h3.326v0.479h-3.326v3.793h5.708v0.479h-6.174v-9.034h5.694v0.479h-5.229V134.872z"
       id="path52"
       style="fill:#ffffff" /><path
       d="M173.404,137.24c0-2.595-6.174-1.823-6.174-4.63c0-1.265,1.477-2.143,3.087-2.143c1.649,0,2.701,0.771,3.087,1.117   l-0.307,0.359c-0.319-0.292-1.277-0.998-2.78-0.998c-1.544,0-2.621,0.839-2.621,1.664c0,2.314,6.187,1.583,6.187,4.63   c0,1.438-1.663,2.502-3.565,2.502c-1.916,0-3.113-0.919-3.566-1.384l0.333-0.333c0.386,0.386,1.49,1.237,3.233,1.237   C172.087,139.263,173.404,138.292,173.404,137.24z"
       id="path54"
       style="fill:#ffffff" /></g></svg>