<?xml version="1.0" encoding="UTF-8" standalone="no"?>
<!-- Generator: Adobe Illustrator 15.0.0, SVG Export Plug-In . SVG Version: 6.00 Build 0)  -->

<svg
   xmlns:dc="http://purl.org/dc/elements/1.1/"
   xmlns:cc="http://creativecommons.org/ns#"
   xmlns:rdf="http://www.w3.org/1999/02/22-rdf-syntax-ns#"
   xmlns:svg="http://www.w3.org/2000/svg"
   xmlns="http://www.w3.org/2000/svg"
   xmlns:sodipodi="http://sodipodi.sourceforge.net/DTD/sodipodi-0.dtd"
   xmlns:inkscape="http://www.inkscape.org/namespaces/inkscape"
   version="1.1"
   id="Layer_1"
   x="0px"
   y="0px"
   width="198.43px"
   height="198.43px"
   viewBox="0 0 198.43 198.43"
   enable-background="new 0 0 198.43 198.43"
   xml:space="preserve"
   sodipodi:docname="JFC.svg"
   inkscape:version="0.92.2 5c3e80d, 2017-08-06"><metadata
     id="metadata49"><rdf:RDF><cc:Work
         rdf:about=""><dc:format>image/svg+xml</dc:format><dc:type
           rdf:resource="http://purl.org/dc/dcmitype/StillImage" /><dc:title /></cc:Work></rdf:RDF></metadata><defs
     id="defs47" /><sodipodi:namedview
     pagecolor="#ffffff"
     bordercolor="#666666"
     borderopacity="1"
     objecttolerance="10"
     gridtolerance="10"
     guidetolerance="10"
     inkscape:pageopacity="0"
     inkscape:pageshadow="2"
     inkscape:window-width="1366"
     inkscape:window-height="720"
     id="namedview45"
     showgrid="false"
     inkscape:zoom="2.3786727"
     inkscape:cx="61.914589"
     inkscape:cy="83.852878"
     inkscape:window-x="0"
     inkscape:window-y="0"
     inkscape:window-maximized="1"
     inkscape:current-layer="g42" /><g
     id="g42"><g
       id="g23"
       transform="matrix(1.1890793,0,0,1.1729432,-8.2615753,-17.348187)"><g
         id="g4"><path
           id="path2"
           d="M 15.163,105.801 8.302,99.301 8.119,99.128 8.302,98.94 C 14.988,91.996 21.619,84.997 28.351,78.099 L 48.536,57.395 C 55.249,50.479 62.06,43.661 68.818,36.789 l 20.389,-20.5 1.053,-1.058 1.055,1.058 20.415,20.475 20.326,20.562 20.193,20.695 10.088,10.356 10.009,10.437 0.306,0.318 -0.306,0.295 c -4.294,4.132 -8.604,8.249 -12.945,12.333 4.084,-4.342 8.2,-8.651 12.332,-12.946 v 0.613 L 161.297,89.417 150.939,79.33 130.244,59.137 109.682,38.81 89.206,18.396 h 2.107 l -20.5,20.389 C 63.941,45.542 57.124,52.354 50.207,59.067 L 29.503,79.251 C 22.606,85.982 15.607,92.613 8.663,99.301 V 98.94 Z"
           inkscape:connector-curvature="0" /></g><g
         id="g8"><path
           id="path6"
           d="m 140.676,130.482 c -3.939,4.463 -7.982,8.822 -12.038,13.17 -4.058,4.344 -8.169,8.637 -12.28,12.927 -4.151,4.252 -8.263,8.543 -12.463,12.745 -4.175,4.228 -8.366,8.44 -12.6,12.609 l -1.044,1.028 -1.026,-1.028 c -3.226,-3.233 -6.419,-6.497 -9.598,-9.777 -3.196,-3.26 -6.348,-6.567 -9.504,-9.869 -3.151,-3.307 -6.28,-6.635 -9.388,-9.986 -3.107,-3.351 -6.192,-6.724 -9.224,-10.15 3.427,3.031 6.8,6.116 10.15,9.224 3.351,3.106 6.681,6.235 9.986,9.388 3.302,3.156 6.608,6.307 9.87,9.504 3.279,3.179 6.543,6.373 9.776,9.598 h -2.07 c 4.169,-4.234 8.382,-8.424 12.609,-12.599 4.203,-4.2 8.494,-8.312 12.745,-12.464 4.291,-4.111 8.583,-8.222 12.928,-12.279 4.349,-4.057 8.708,-8.101 13.171,-12.041 z"
           inkscape:connector-curvature="0" /></g><g
         id="g16"><path
           id="path10"
           d="m 110.776,56.93 -3.24,0.604 c -3.868,6.682 -7.585,15.674 -11.153,26.977 -1.355,4.27 -3.267,9.182 -5.727,14.731 -2.463,5.553 -5.2,10.69 -8.215,15.411 -4.068,6.33 -9.481,11.543 -16.238,15.637 -6.758,4.094 -12.924,6.52 -18.5,7.271 -2.56,0.352 -5.475,0.527 -8.739,0.527 -3.266,0 -6.632,-0.576 -10.099,-1.732 -5.424,-1.809 -9.144,-4.771 -11.153,-8.891 -0.903,-1.912 -1.354,-4.146 -1.354,-6.707 0,-2.564 0.676,-5.576 2.034,-9.043 0.953,-2.311 2.635,-4.471 5.049,-6.48 2.409,-2.01 4.293,-3.039 5.651,-3.09 0.601,-0.051 0.903,0.051 0.903,0.301 -0.052,0.201 -0.376,0.453 -0.979,0.756 -1.61,0.65 -3.392,2.084 -5.354,4.295 -1.958,2.209 -3.252,4.432 -3.879,6.666 -0.628,2.234 -0.942,3.959 -0.942,5.162 0,3.668 0.979,6.631 2.939,8.893 1.355,1.508 3.037,2.863 5.05,4.07 2.006,1.205 4.168,2.033 6.48,2.486 3.414,0.652 6.127,0.979 8.136,0.979 2.011,0 3.795,-0.201 5.352,-0.602 3.417,-0.756 6.718,-2.01 9.908,-3.768 3.191,-1.76 6.017,-3.682 8.478,-5.766 2.462,-2.086 4.91,-4.658 7.349,-7.723 2.436,-3.064 4.483,-5.854 6.141,-8.365 1.657,-2.514 3.417,-5.525 5.275,-9.045 3.014,-5.726 6.104,-12.308 9.268,-19.742 3.969,-8.842 7.988,-16.477 12.058,-22.91 -6.984,1.158 -14.092,3.672 -21.325,7.537 -3.669,1.959 -6.81,4.447 -9.419,7.459 -3.367,3.818 -5.049,7.914 -5.049,12.283 0,2.363 0.563,4.193 1.695,5.5 1.129,1.309 2.322,1.961 3.578,1.961 1.255,0 2.637,-0.275 4.146,-0.83 1.506,-0.551 2.864,-1.506 4.067,-2.863 1.91,-2.209 2.864,-4.746 2.864,-7.609 0,-1.207 -0.176,-2.01 -0.528,-2.412 -0.604,-0.4 -0.653,-0.777 -0.15,-1.131 0.555,-0.301 1.13,-0.125 1.733,0.531 0.503,1.102 0.755,2.396 0.755,3.877 0,1.482 -0.556,3.18 -1.659,5.088 -1.858,3.166 -4.421,5.326 -7.687,6.48 -1.506,0.504 -2.938,0.752 -4.293,0.752 -2.261,0 -4.297,-0.727 -6.105,-2.184 -2.311,-1.908 -3.467,-4.471 -3.467,-7.688 0,-4.07 1.456,-7.961 4.372,-11.68 2.21,-2.863 4.809,-5.225 7.798,-7.082 2.989,-1.859 6.367,-3.516 10.137,-4.975 6.078,-2.359 12.684,-4.018 19.82,-4.973 0.601,-1.004 1.505,-2.186 2.712,-3.543 1.206,-1.354 2.208,-2.158 3.014,-2.41 0.802,-0.25 1.456,-0.377 1.957,-0.377 1.76,0 2.64,0.754 2.64,2.26 -0.052,1.357 -0.604,2.4 -1.659,3.127 -1.056,0.733 -2.535,1.397 -4.446,2 z m 2.337,-4.972 c -0.103,0 -0.215,0.025 -0.341,0.076 -0.127,0.051 -0.299,0.162 -0.526,0.338 -0.227,0.176 -0.438,0.34 -0.641,0.488 -0.203,0.15 -0.441,0.379 -0.716,0.68 -0.276,0.303 -0.502,0.541 -0.677,0.715 -0.179,0.178 -0.415,0.428 -0.718,0.754 -0.301,0.328 -0.501,0.539 -0.602,0.641 3.465,-0.604 5.173,-1.531 5.123,-2.789 -0.098,-0.603 -0.402,-0.903 -0.902,-0.903 z"
           stroke-miterlimit="10"
           inkscape:connector-curvature="0"
           style="stroke:#000000;stroke-width:0.5;stroke-miterlimit:10" /><path
           id="path12"
           d="m 99.761,103.494 -2.184,1.746 -0.536,-0.605 c 0.849,-0.91 1.487,-1.625 1.906,-2.143 0.418,-0.518 1.02,-1.258 1.801,-2.227 -0.088,-0.24 -0.153,-0.584 -0.201,-1.022 -0.066,-0.623 0.097,-1.176 0.49,-1.663 0.389,-0.481 0.929,-0.76 1.615,-0.833 l 0.749,-0.078 0.557,-1.008 2.862,-5.223 c 0.687,-1.271 1.458,-2.648 2.311,-4.127 0.854,-1.479 1.828,-3.064 2.912,-4.758 1.141,-1.762 2.174,-3.338 3.102,-4.729 0.929,-1.391 1.788,-2.652 2.586,-3.777 0.797,-1.125 1.574,-2.152 2.327,-3.086 0.755,-0.932 1.528,-1.82 2.327,-2.66 0.85,-0.908 1.627,-1.639 2.324,-2.186 0.703,-0.547 1.396,-0.857 2.084,-0.93 0.621,-0.066 1.13,0.086 1.516,0.457 0.383,0.373 0.615,0.898 0.687,1.586 0.112,1.061 -0.438,2.572 -1.653,4.529 -1.217,1.959 -3.174,4.502 -5.877,7.627 l -7.614,8.662 -4.407,4.912 -1.016,1.15 -0.612,1.391 c -0.604,1.451 -1.145,2.629 -1.618,3.532 -0.473,0.903 -0.838,1.637 -1.095,2.2 -0.256,0.562 -0.445,1.039 -0.559,1.434 -0.12,0.391 -0.153,0.805 -0.107,1.24 0.073,0.689 0.333,1.215 0.782,1.576 0.447,0.363 0.953,0.516 1.516,0.455 0.624,-0.064 1.24,-0.365 1.846,-0.902 0.607,-0.539 1.503,-1.469 2.69,-2.793 l 0.857,0.951 c -1.299,1.463 -2.299,2.467 -2.997,3.014 -0.701,0.549 -1.488,0.867 -2.363,0.959 -0.876,0.092 -1.611,-0.02 -2.211,-0.334 -0.604,-0.316 -1.201,-0.883 -1.793,-1.707 l -1.641,3.299 -0.729,2.064 c -0.383,1.176 -0.773,2.273 -1.168,3.295 -0.399,1.02 -0.739,1.986 -1.024,2.902 -1.119,3.148 -1.981,5.621 -2.582,7.422 -0.599,1.799 -0.997,2.961 -1.196,3.488 -0.344,0.92 -0.793,2.057 -1.347,3.408 -0.552,1.352 -1.144,2.771 -1.776,4.26 -0.633,1.486 -1.266,2.959 -1.904,4.414 -0.637,1.457 -1.209,2.781 -1.716,3.971 -1.209,2.904 -2.312,5.324 -3.306,7.262 -0.996,1.936 -1.939,3.504 -2.822,4.699 -0.886,1.195 -1.74,2.078 -2.565,2.639 -0.823,0.561 -1.673,0.887 -2.549,0.979 -0.75,0.078 -1.402,-0.137 -1.963,-0.646 -0.558,-0.51 -0.882,-1.201 -0.975,-2.076 -0.087,-0.812 -0.034,-1.67 0.155,-2.574 0.188,-0.904 0.502,-1.979 0.941,-3.225 0.302,-0.727 0.66,-1.521 1.074,-2.387 0.415,-0.863 0.829,-1.729 1.242,-2.592 0.423,-0.803 0.814,-1.57 1.179,-2.301 0.366,-0.736 0.8,-1.57 1.3,-2.506 0.502,-0.938 1.138,-2.109 1.903,-3.516 0.769,-1.406 1.763,-3.215 2.981,-5.426 l 4.364,-8.037 5.696,-9.785 z m -8.384,21.151 c -0.426,0.738 -1.104,1.947 -2.034,3.623 -0.928,1.676 -2.106,3.852 -3.528,6.527 -0.954,1.74 -1.743,3.246 -2.368,4.512 -0.623,1.266 -1.185,2.381 -1.685,3.35 -0.497,0.967 -0.953,1.869 -1.373,2.701 -0.416,0.834 -0.832,1.682 -1.247,2.545 -0.976,2.125 -1.6,3.705 -1.869,4.744 -0.271,1.037 -0.372,1.869 -0.307,2.496 0.079,0.746 0.37,1.098 0.867,1.043 0.562,-0.059 1.236,-0.541 2.025,-1.443 0.792,-0.904 1.609,-2.127 2.459,-3.668 0.848,-1.543 1.807,-3.521 2.88,-5.939 1.071,-2.418 2.347,-5.312 3.821,-8.686 0.766,-1.725 1.463,-3.361 2.088,-4.91 0.628,-1.551 1.188,-2.98 1.681,-4.295 0.262,-0.535 0.669,-1.604 1.226,-3.209 0.557,-1.605 1.303,-3.688 2.233,-6.248 l 2.2,-6.104 -3.074,5.91 z m 23.115,-40.504 c 0.672,-0.83 1.428,-1.729 2.273,-2.703 0.837,-1.035 1.594,-1.967 2.265,-2.795 0.67,-0.828 1.282,-1.604 1.839,-2.324 0.555,-0.721 1.051,-1.404 1.488,-2.051 0.437,-0.647 0.904,-1.311 1.4,-1.996 1.583,-2.373 2.32,-4.062 2.216,-5.061 -0.047,-0.438 -0.257,-0.637 -0.632,-0.598 -1.062,0.111 -2.814,2.047 -5.262,5.809 -2.445,3.764 -5.38,8.887 -8.803,15.369 l 1.539,-1.58 c 0.45,-0.552 1.007,-1.244 1.677,-2.07 z"
           stroke-miterlimit="10"
           inkscape:connector-curvature="0"
           style="stroke:#000000;stroke-width:0.5;stroke-miterlimit:10" /><path
           id="path14"
           d="m 128.128,102.281 c -2.882,2.639 -5.282,4.691 -7.212,6.156 -1.93,1.465 -3.895,2.305 -5.895,2.512 -2.996,0.316 -4.602,-0.525 -4.812,-2.523 -0.098,-0.938 0.08,-1.951 0.535,-3.041 0.453,-1.09 1.128,-2.184 2.021,-3.291 1.286,-1.586 2.771,-2.942 4.45,-4.065 1.682,-1.125 3.209,-1.758 4.584,-1.905 0.938,-0.098 1.727,0.072 2.375,0.51 0.644,0.438 1.012,1.094 1.105,1.968 0.078,0.75 -0.118,1.434 -0.59,2.051 -0.473,0.617 -1.083,0.965 -1.833,1.045 -0.623,0.066 -1.155,-0.051 -1.599,-0.354 -0.443,-0.297 -0.688,-0.697 -0.742,-1.199 -0.059,-0.561 0.174,-1.061 0.695,-1.495 0.182,-0.083 0.262,-0.217 0.241,-0.405 -0.037,-0.375 -0.277,-0.537 -0.714,-0.492 -1,0.102 -2.191,1.083 -3.573,2.933 -0.827,1.162 -1.475,2.35 -1.947,3.566 -0.473,1.219 -0.663,2.264 -0.571,3.141 0.12,1.123 0.896,1.607 2.333,1.459 1.312,-0.139 2.948,-0.928 4.913,-2.365 1.963,-1.438 3.84,-3.26 5.629,-5.469 l 0.953,0.941 z"
           stroke-miterlimit="10"
           inkscape:connector-curvature="0"
           style="stroke:#000000;stroke-width:0.5;stroke-miterlimit:10" /></g></g></g></svg>