<?xml version="1.0" encoding="utf-8"?>
<!-- Generator: Adobe Illustrator 15.0.0, SVG Export Plug-In . SVG Version: 6.00 Build 0)  -->
<!DOCTYPE svg PUBLIC "-//W3C//DTD SVG 1.1//EN" "http://www.w3.org/Graphics/SVG/1.1/DTD/svg11.dtd">
<svg version="1.1" id="Layer_1" xmlns="http://www.w3.org/2000/svg" xmlns:xlink="http://www.w3.org/1999/xlink" x="0px" y="0px"
	 width="198.43px" height="198.43px" viewBox="0 0 198.43 198.43" enable-background="new 0 0 198.43 198.43" xml:space="preserve">
<g>
	<g>
		<path d="M23.38,106.052l-6.798-6.562l-0.117-0.113l0.117-0.121l20.165-20.724l10.088-10.355l10.141-10.304l20.281-20.607
			c6.771-6.858,13.495-13.764,20.31-20.579l0.907-0.907l0.911,0.907l40.997,40.781l20.478,20.411l20.39,20.498l0.997,1.002
			l-0.997,0.99l-41.012,40.766l-41.219,40.559l-0.555,0.546l-0.531-0.546l-19.127-19.62c-6.382-6.534-12.743-13.089-19.077-19.671
			c6.581,6.334,13.136,12.695,19.671,19.077l19.619,19.128h-1.086l40.562-41.216l40.764-41.015v1.992l-20.499-20.391L138.348,59.5
			L97.566,18.504h1.818c-6.815,6.814-13.72,13.539-20.579,20.31L58.199,59.095L47.896,69.235L37.54,79.324L16.816,99.489v-0.234
			L23.38,106.052z"/>
	</g>
	<g>
		<path stroke="#000000" stroke-width="0.5" stroke-miterlimit="10" d="M118.993,57.183l-3.241,0.604
			c-3.868,6.682-7.585,15.674-11.152,26.977c-1.355,4.27-3.267,9.182-5.728,14.73c-2.462,5.553-5.199,10.689-8.214,15.41
			c-4.069,6.33-9.481,11.543-16.238,15.637c-6.758,4.094-12.924,6.52-18.5,7.271c-2.56,0.352-5.475,0.527-8.739,0.527
			c-3.266,0-6.632-0.576-10.099-1.732c-5.424-1.809-9.144-4.771-11.153-8.891c-0.903-1.912-1.354-4.146-1.354-6.707
			c0-2.564,0.676-5.576,2.033-9.043c0.954-2.311,2.636-4.471,5.05-6.48c2.409-2.01,4.293-3.039,5.651-3.09
			c0.601-0.051,0.903,0.051,0.903,0.301c-0.052,0.201-0.376,0.453-0.979,0.756c-1.61,0.65-3.392,2.084-5.354,4.295
			c-1.958,2.209-3.252,4.432-3.879,6.666c-0.628,2.234-0.942,3.959-0.942,5.162c0,3.668,0.979,6.631,2.939,8.893
			c1.355,1.508,3.037,2.863,5.05,4.07c2.006,1.205,4.168,2.033,6.48,2.486c3.414,0.652,6.127,0.979,8.136,0.979
			c2.011,0,3.795-0.201,5.352-0.602c3.417-0.756,6.718-2.01,9.908-3.768c3.191-1.76,6.017-3.682,8.478-5.766
			c2.462-2.086,4.91-4.658,7.349-7.723c2.436-3.064,4.483-5.854,6.141-8.365c1.657-2.514,3.417-5.525,5.275-9.045
			c3.014-5.725,6.104-12.307,9.268-19.74c3.969-8.842,7.986-16.477,12.057-22.91c-6.983,1.158-14.091,3.672-21.324,7.537
			c-3.669,1.959-6.81,4.447-9.419,7.459c-3.367,3.818-5.049,7.914-5.049,12.283c0,2.363,0.563,4.193,1.695,5.5
			c1.128,1.309,2.322,1.961,3.578,1.961c1.255,0,2.636-0.275,4.146-0.83c1.506-0.551,2.864-1.506,4.067-2.863
			c1.91-2.209,2.864-4.746,2.864-7.609c0-1.207-0.176-2.01-0.528-2.412c-0.604-0.4-0.653-0.777-0.15-1.131
			c0.554-0.301,1.13-0.125,1.733,0.531c0.502,1.102,0.754,2.396,0.754,3.877c0,1.482-0.555,3.18-1.658,5.088
			c-1.859,3.166-4.421,5.326-7.687,6.48c-1.506,0.504-2.938,0.752-4.293,0.752c-2.261,0-4.297-0.727-6.105-2.184
			c-2.311-1.908-3.467-4.471-3.467-7.688c0-4.07,1.456-7.961,4.372-11.68c2.21-2.863,4.809-5.225,7.798-7.082
			c2.989-1.859,6.367-3.516,10.137-4.975c6.078-2.359,12.683-4.018,19.819-4.973c0.601-1.004,1.505-2.186,2.712-3.543
			c1.206-1.354,2.208-2.158,3.014-2.41c0.802-0.25,1.456-0.377,1.956-0.377c1.761,0,2.641,0.754,2.641,2.26
			c-0.052,1.357-0.604,2.4-1.659,3.127C122.382,55.915,120.902,56.579,118.993,57.183z M121.329,52.21
			c-0.104,0-0.215,0.025-0.341,0.076c-0.127,0.051-0.299,0.162-0.526,0.338s-0.439,0.34-0.641,0.488
			c-0.203,0.15-0.441,0.379-0.716,0.68c-0.276,0.303-0.502,0.541-0.677,0.715c-0.179,0.178-0.415,0.428-0.718,0.754
			c-0.301,0.328-0.501,0.539-0.603,0.641c3.466-0.604,5.174-1.531,5.124-2.789C122.133,52.511,121.829,52.21,121.329,52.21z"/>
		<path stroke="#000000" stroke-width="0.5" stroke-miterlimit="10" d="M107.978,103.745l-2.184,1.746l-0.537-0.605
			c0.85-0.91,1.488-1.625,1.906-2.143s1.02-1.258,1.801-2.227c-0.088-0.24-0.153-0.584-0.201-1.021
			c-0.066-0.623,0.096-1.176,0.49-1.662c0.389-0.48,0.929-0.76,1.615-0.832l0.749-0.078l0.556-1.008l2.863-5.223
			c0.686-1.271,1.458-2.648,2.311-4.127c0.854-1.479,1.828-3.064,2.912-4.758c1.141-1.762,2.174-3.338,3.102-4.729
			s1.788-2.652,2.586-3.777c0.797-1.125,1.574-2.152,2.327-3.086c0.755-0.932,1.528-1.82,2.327-2.66
			c0.85-0.908,1.627-1.639,2.324-2.186c0.703-0.547,1.396-0.857,2.084-0.93c0.621-0.066,1.129,0.086,1.516,0.457
			c0.383,0.373,0.615,0.898,0.687,1.586c0.112,1.061-0.438,2.572-1.653,4.529c-1.217,1.959-3.174,4.502-5.877,7.627l-7.614,8.662
			l-4.407,4.912l-1.016,1.15l-0.612,1.391c-0.604,1.451-1.145,2.629-1.618,3.531c-0.473,0.902-0.838,1.637-1.095,2.199
			c-0.256,0.562-0.446,1.039-0.56,1.434c-0.119,0.391-0.152,0.805-0.106,1.24c0.073,0.689,0.333,1.215,0.782,1.576
			c0.447,0.363,0.953,0.516,1.516,0.455c0.624-0.064,1.24-0.365,1.846-0.902c0.607-0.539,1.503-1.469,2.69-2.793l0.857,0.951
			c-1.299,1.463-2.299,2.467-2.997,3.014c-0.701,0.549-1.488,0.867-2.363,0.959c-0.877,0.092-1.611-0.02-2.211-0.334
			c-0.604-0.316-1.201-0.883-1.793-1.707l-1.641,3.299l-0.73,2.064c-0.383,1.176-0.771,2.273-1.167,3.295
			c-0.399,1.02-0.738,1.986-1.023,2.902c-1.119,3.148-1.981,5.621-2.582,7.422c-0.599,1.799-0.997,2.961-1.196,3.488
			c-0.344,0.92-0.793,2.057-1.348,3.408c-0.551,1.352-1.143,2.771-1.775,4.26c-0.633,1.486-1.266,2.959-1.904,4.414
			c-0.637,1.457-1.209,2.781-1.716,3.971c-1.209,2.904-2.312,5.324-3.306,7.262c-0.996,1.936-1.939,3.504-2.822,4.699
			c-0.886,1.195-1.74,2.078-2.565,2.639c-0.823,0.561-1.673,0.887-2.549,0.979c-0.75,0.078-1.402-0.137-1.964-0.646
			c-0.557-0.51-0.881-1.201-0.974-2.076c-0.087-0.812-0.034-1.67,0.155-2.574c0.188-0.904,0.502-1.979,0.941-3.225
			c0.302-0.727,0.66-1.521,1.074-2.387c0.415-0.863,0.829-1.729,1.242-2.592c0.423-0.803,0.814-1.57,1.179-2.301
			c0.366-0.736,0.8-1.57,1.3-2.506c0.502-0.938,1.138-2.109,1.903-3.516c0.769-1.406,1.763-3.215,2.981-5.426l4.364-8.037
			l5.696-9.785L107.978,103.745z M99.594,124.896c-0.426,0.738-1.104,1.947-2.034,3.623c-0.928,1.676-2.106,3.852-3.528,6.527
			c-0.954,1.74-1.743,3.246-2.368,4.512c-0.623,1.266-1.185,2.381-1.685,3.35c-0.497,0.967-0.953,1.869-1.373,2.701
			c-0.416,0.834-0.832,1.682-1.247,2.545c-0.976,2.125-1.6,3.705-1.869,4.744c-0.271,1.037-0.372,1.869-0.307,2.496
			c0.079,0.746,0.37,1.098,0.867,1.043c0.562-0.059,1.236-0.541,2.025-1.443c0.792-0.904,1.609-2.127,2.459-3.668
			c0.848-1.543,1.807-3.521,2.88-5.939c1.071-2.418,2.347-5.312,3.821-8.686c0.766-1.725,1.463-3.361,2.088-4.91
			c0.628-1.551,1.188-2.98,1.681-4.295c0.262-0.535,0.669-1.604,1.226-3.209s1.303-3.688,2.233-6.248l2.2-6.104l-3.074,5.91
			L99.594,124.896z M122.708,84.394c0.672-0.83,1.428-1.729,2.273-2.703c0.837-1.035,1.594-1.967,2.265-2.795
			c0.67-0.828,1.282-1.604,1.839-2.324c0.555-0.721,1.051-1.404,1.488-2.051s0.904-1.311,1.4-1.996
			c1.583-2.373,2.32-4.062,2.216-5.061c-0.048-0.438-0.257-0.637-0.632-0.598c-1.062,0.111-2.814,2.047-5.262,5.809
			c-2.445,3.764-5.38,8.887-8.803,15.369l1.539-1.58C121.48,85.911,122.038,85.22,122.708,84.394z"/>
		<path stroke="#000000" stroke-width="0.5" stroke-miterlimit="10" d="M136.344,102.532c-2.882,2.639-5.282,4.691-7.212,6.156
			s-3.895,2.305-5.895,2.512c-2.996,0.316-4.602-0.525-4.812-2.523c-0.098-0.938,0.08-1.951,0.535-3.041
			c0.453-1.09,1.128-2.184,2.021-3.291c1.286-1.586,2.771-2.941,4.45-4.064c1.682-1.125,3.209-1.758,4.584-1.904
			c0.938-0.098,1.727,0.072,2.375,0.51c0.644,0.438,1.012,1.094,1.105,1.967c0.078,0.75-0.118,1.434-0.59,2.051
			c-0.473,0.617-1.083,0.965-1.833,1.045c-0.623,0.066-1.155-0.051-1.599-0.354c-0.443-0.297-0.688-0.697-0.742-1.199
			c-0.059-0.561,0.174-1.061,0.695-1.494c0.182-0.082,0.262-0.217,0.241-0.404c-0.037-0.375-0.278-0.537-0.714-0.492
			c-1,0.102-2.191,1.082-3.573,2.932c-0.827,1.162-1.475,2.35-1.947,3.566c-0.473,1.219-0.663,2.264-0.571,3.141
			c0.12,1.123,0.895,1.607,2.333,1.459c1.312-0.139,2.948-0.928,4.913-2.365c1.963-1.438,3.84-3.26,5.629-5.469l0.953,0.941
			L136.344,102.532z"/>
	</g>
</g>
</svg>
